HIERARCHY
ROOT mixamorig:Hips
{
	OFFSET -0.000008 104.274872 1.554316
	CHANNELS 6 Xposition Yposition Zposition Xrotation Yrotation Zrotation
	JOINT mixamorig:Spine
	{
		OFFSET -0.000005 10.181595 0.131519
		CHANNELS 6 Xposition Yposition Zposition Xrotation Yrotation Zrotation
		JOINT mixamorig:Spine1
		{
			OFFSET -0.000000 9.893959 -1.470707
			CHANNELS 6 Xposition Yposition Zposition Xrotation Yrotation Zrotation
			JOINT mixamorig:Spine2
			{
				OFFSET -0.000000 9.220757 -1.370641
				CHANNELS 6 Xposition Yposition Zposition Xrotation Yrotation Zrotation
				JOINT mixamorig:Neck
				{
					OFFSET 0.000001 16.740417 -2.049036
					CHANNELS 6 Xposition Yposition Zposition Xrotation Yrotation Zrotation
					JOINT mixamorig:Head
					{
						OFFSET 0.000000 9.617874 1.685006
						CHANNELS 6 Xposition Yposition Zposition Xrotation Yrotation Zrotation
						JOINT mixamorig:HeadTop_End
						{
							OFFSET 0.000002 22.037354 7.501101
							CHANNELS 6 Xposition Yposition Zposition Xrotation Yrotation Zrotation
							End Site
							{
								OFFSET 0.000168 2310.654297 -282.823242
							}
						}
					}
				}
				JOINT mixamorig:RightShoulder
				{
					OFFSET -4.569970 11.014908 -2.160885
					CHANNELS 6 Xposition Yposition Zposition Xrotation Yrotation Zrotation
					JOINT mixamorig:RightArm
					{
						OFFSET -10.592851 -0.524811 -2.232101
						CHANNELS 6 Xposition Yposition Zposition Xrotation Yrotation Zrotation
						JOINT mixamorig:RightForeArm
						{
							OFFSET -27.841511 0.000031 -0.000004
							CHANNELS 6 Xposition Yposition Zposition Xrotation Yrotation Zrotation
							JOINT mixamorig:RightHand
							{
								OFFSET -28.328831 -0.000015 0.000015
								CHANNELS 6 Xposition Yposition Zposition Xrotation Yrotation Zrotation
								JOINT mixamorig:RightHandThumb1
								{
									OFFSET -2.464806 -1.573990 2.681852
									CHANNELS 6 Xposition Yposition Zposition Xrotation Yrotation Zrotation
									JOINT mixamorig:RightHandThumb2
									{
										OFFSET -3.215179 -1.872803 1.924282
										CHANNELS 6 Xposition Yposition Zposition Xrotation Yrotation Zrotation
										JOINT mixamorig:RightHandThumb3
										{
											OFFSET -2.654831 -1.527969 1.512609
											CHANNELS 6 Xposition Yposition Zposition Xrotation Yrotation Zrotation
											JOINT mixamorig:RightHandThumb4
											{
												OFFSET -2.018814 -1.152008 1.108052
												CHANNELS 6 Xposition Yposition Zposition Xrotation Yrotation Zrotation
												End Site
												{
													OFFSET -188.809540 -114.533607 132.431396
												}
											}
										}
									}
								}
								JOINT mixamorig:RightHandIndex1
								{
									OFFSET -9.108284 -0.517868 2.259835
									CHANNELS 6 Xposition Yposition Zposition Xrotation Yrotation Zrotation
									JOINT mixamorig:RightHandIndex2
									{
										OFFSET -3.699989 0.000000 0.001215
										CHANNELS 6 Xposition Yposition Zposition Xrotation Yrotation Zrotation
										JOINT mixamorig:RightHandIndex3
										{
											OFFSET -2.850006 0.000031 -0.000522
											CHANNELS 6 Xposition Yposition Zposition Xrotation Yrotation Zrotation
											JOINT mixamorig:RightHandIndex4
											{
												OFFSET -2.772186 -0.000015 -0.000020
												CHANNELS 6 Xposition Yposition Zposition Xrotation Yrotation Zrotation
												End Site
												{
													OFFSET -277.218445 0.000000 -0.050231
												}
											}
										}
									}
								}
								JOINT mixamorig:RightHandMiddle1
								{
									OFFSET -9.532516 -0.000031 -0.000023
									CHANNELS 6 Xposition Yposition Zposition Xrotation Yrotation Zrotation
									JOINT mixamorig:RightHandMiddle2
									{
										OFFSET -3.700005 -0.000015 0.003713
										CHANNELS 6 Xposition Yposition Zposition Xrotation Yrotation Zrotation
										JOINT mixamorig:RightHandMiddle3
										{
											OFFSET -2.949974 0.000015 -0.002054
											CHANNELS 6 Xposition Yposition Zposition Xrotation Yrotation Zrotation
											JOINT mixamorig:RightHandMiddle4
											{
												OFFSET -2.946640 0.000000 -0.000156
												CHANNELS 6 Xposition Yposition Zposition Xrotation Yrotation Zrotation
												End Site
												{
													OFFSET -294.664337 0.000000 -0.113670
												}
											}
										}
									}
								}
								JOINT mixamorig:RightHandRing1
								{
									OFFSET -9.103600 -0.043076 -1.865134
									CHANNELS 6 Xposition Yposition Zposition Xrotation Yrotation Zrotation
									JOINT mixamorig:RightHandRing2
									{
										OFFSET -3.379288 0.000000 -0.001055
										CHANNELS 6 Xposition Yposition Zposition Xrotation Yrotation Zrotation
										JOINT mixamorig:RightHandRing3
										{
											OFFSET -2.889687 -0.000015 0.000379
											CHANNELS 6 Xposition Yposition Zposition Xrotation Yrotation Zrotation
											JOINT mixamorig:RightHandRing4
											{
												OFFSET -2.638809 -0.000015 0.000941
												CHANNELS 6 Xposition Yposition Zposition Xrotation Yrotation Zrotation
												End Site
												{
													OFFSET -263.880371 0.000000 0.516020
												}
											}
										}
									}
								}
								JOINT mixamorig:RightHandPinky1
								{
									OFFSET -8.076683 -0.486710 -3.806280
									CHANNELS 6 Xposition Yposition Zposition Xrotation Yrotation Zrotation
									JOINT mixamorig:RightHandPinky2
									{
										OFFSET -3.600014 -0.000015 -0.003747
										CHANNELS 6 Xposition Yposition Zposition Xrotation Yrotation Zrotation
										JOINT mixamorig:RightHandPinky3
										{
											OFFSET -2.099983 0.000000 -0.005739
											CHANNELS 6 Xposition Yposition Zposition Xrotation Yrotation Zrotation
											JOINT mixamorig:RightHandPinky4
											{
												OFFSET -2.115768 -0.000031 -0.003680
												CHANNELS 6 Xposition Yposition Zposition Xrotation Yrotation Zrotation
												End Site
												{
													OFFSET -211.577087 0.000000 -0.350686
												}
											}
										}
									}
								}
							}
						}
					}
				}
				JOINT mixamorig:LeftShoulder
				{
					OFFSET 4.570447 11.014725 -2.160855
					CHANNELS 6 Xposition Yposition Zposition Xrotation Yrotation Zrotation
					JOINT mixamorig:LeftArm
					{
						OFFSET 10.592371 -0.524597 -2.232119
						CHANNELS 6 Xposition Yposition Zposition Xrotation Yrotation Zrotation
						JOINT mixamorig:LeftForeArm
						{
							OFFSET 27.841532 -0.000031 0.000026
							CHANNELS 6 Xposition Yposition Zposition Xrotation Yrotation Zrotation
							JOINT mixamorig:LeftHand
							{
								OFFSET 28.328846 -0.000061 0.000022
								CHANNELS 6 Xposition Yposition Zposition Xrotation Yrotation Zrotation
								JOINT mixamorig:LeftHandThumb1
								{
									OFFSET 2.466141 -1.576172 2.681732
									CHANNELS 6 Xposition Yposition Zposition Xrotation Yrotation Zrotation
									JOINT mixamorig:LeftHandThumb2
									{
										OFFSET 3.217812 -1.872070 1.916482
										CHANNELS 6 Xposition Yposition Zposition Xrotation Yrotation Zrotation
										JOINT mixamorig:LeftHandThumb3
										{
											OFFSET 2.656029 -1.528778 1.514513
											CHANNELS 6 Xposition Yposition Zposition Xrotation Yrotation Zrotation
											JOINT mixamorig:LeftHandThumb4
											{
												OFFSET 2.020889 -1.154053 1.115139
												CHANNELS 6 Xposition Yposition Zposition Xrotation Yrotation Zrotation
												End Site
												{
													OFFSET 190.885437 -115.081749 130.048782
												}
											}
										}
									}
								}
								JOINT mixamorig:LeftHandIndex1
								{
									OFFSET 9.109314 -0.518021 2.259871
									CHANNELS 6 Xposition Yposition Zposition Xrotation Yrotation Zrotation
									JOINT mixamorig:LeftHandIndex2
									{
										OFFSET 3.699989 0.000000 -0.000322
										CHANNELS 6 Xposition Yposition Zposition Xrotation Yrotation Zrotation
										JOINT mixamorig:LeftHandIndex3
										{
											OFFSET 2.850006 0.000000 0.000352
											CHANNELS 6 Xposition Yposition Zposition Xrotation Yrotation Zrotation
											JOINT mixamorig:LeftHandIndex4
											{
												OFFSET 2.774864 -0.000031 -0.000027
												CHANNELS 6 Xposition Yposition Zposition Xrotation Yrotation Zrotation
												End Site
												{
													OFFSET 277.486267 0.000000 -0.009857
												}
											}
										}
									}
								}
								JOINT mixamorig:LeftHandMiddle1
								{
									OFFSET 9.533394 0.000061 0.000044
									CHANNELS 6 Xposition Yposition Zposition Xrotation Yrotation Zrotation
									JOINT mixamorig:LeftHandMiddle2
									{
										OFFSET 3.699989 -0.000015 -0.000231
										CHANNELS 6 Xposition Yposition Zposition Xrotation Yrotation Zrotation
										JOINT mixamorig:LeftHandMiddle3
										{
											OFFSET 2.949997 -0.000015 -0.000059
											CHANNELS 6 Xposition Yposition Zposition Xrotation Yrotation Zrotation
											JOINT mixamorig:LeftHandMiddle4
											{
												OFFSET 2.952896 0.000031 0.000063
												CHANNELS 6 Xposition Yposition Zposition Xrotation Yrotation Zrotation
												End Site
												{
													OFFSET 295.289337 0.000000 0.022810
												}
											}
										}
									}
								}
								JOINT mixamorig:LeftHandRing1
								{
									OFFSET 9.104523 -0.042999 -1.865074
									CHANNELS 6 Xposition Yposition Zposition Xrotation Yrotation Zrotation
									JOINT mixamorig:LeftHandRing2
									{
										OFFSET 3.150009 -0.000031 0.000043
										CHANNELS 6 Xposition Yposition Zposition Xrotation Yrotation Zrotation
										JOINT mixamorig:LeftHandRing3
										{
											OFFSET 2.949982 -0.000015 0.000040
											CHANNELS 6 Xposition Yposition Zposition Xrotation Yrotation Zrotation
											JOINT mixamorig:LeftHandRing4
											{
												OFFSET 2.644348 0.000000 0.000057
												CHANNELS 6 Xposition Yposition Zposition Xrotation Yrotation Zrotation
												End Site
												{
													OFFSET 264.434631 0.000000 0.012105
												}
											}
										}
									}
								}
								JOINT mixamorig:LeftHandPinky1
								{
									OFFSET 8.077789 -0.486847 -3.806259
									CHANNELS 6 Xposition Yposition Zposition Xrotation Yrotation Zrotation
									JOINT mixamorig:LeftHandPinky2
									{
										OFFSET 3.599953 0.000031 0.014727
										CHANNELS 6 Xposition Yposition Zposition Xrotation Yrotation Zrotation
										JOINT mixamorig:LeftHandPinky3
										{
											OFFSET 2.100021 0.000015 0.007705
											CHANNELS 6 Xposition Yposition Zposition Xrotation Yrotation Zrotation
											JOINT mixamorig:LeftHandPinky4
											{
												OFFSET 2.125504 0.000031 0.007517
												CHANNELS 6 Xposition Yposition Zposition Xrotation Yrotation Zrotation
												End Site
												{
													OFFSET 212.550781 0.000000 0.625752
												}
											}
										}
									}
								}
							}
						}
					}
				}
			}
		}
	}
	JOINT mixamorig:RightUpLeg
	{
		OFFSET -8.207787 -6.751648 -1.599560
		CHANNELS 6 Xposition Yposition Zposition Xrotation Yrotation Zrotation
		JOINT mixamorig:RightLeg
		{
			OFFSET -0.000002 -44.370117 0.345942
			CHANNELS 6 Xposition Yposition Zposition Xrotation Yrotation Zrotation
			JOINT mixamorig:RightFoot
			{
				OFFSET 0.000003 -44.423679 -3.043532
				CHANNELS 6 Xposition Yposition Zposition Xrotation Yrotation Zrotation
				JOINT mixamorig:RightToeBase
				{
					OFFSET -0.000002 -8.728671 10.710558
					CHANNELS 6 Xposition Yposition Zposition Xrotation Yrotation Zrotation
					JOINT mixamorig:RightToe_End
					{
						OFFSET -0.000001 -0.000679 9.278119
						CHANNELS 6 Xposition Yposition Zposition Xrotation Yrotation Zrotation
						End Site
						{
							OFFSET 0.000000 -0.067690 927.812134
						}
					}
				}
			}
		}
	}
	JOINT mixamorig:LeftUpLeg
	{
		OFFSET 8.207793 -6.751686 -1.599556
		CHANNELS 6 Xposition Yposition Zposition Xrotation Yrotation Zrotation
		JOINT mixamorig:LeftLeg
		{
			OFFSET -0.000004 -44.370014 0.346954
			CHANNELS 6 Xposition Yposition Zposition Xrotation Yrotation Zrotation
			JOINT mixamorig:LeftFoot
			{
				OFFSET -0.000001 -44.423672 -3.044401
				CHANNELS 6 Xposition Yposition Zposition Xrotation Yrotation Zrotation
				JOINT mixamorig:LeftToeBase
				{
					OFFSET -0.000002 -8.728669 10.710558
					CHANNELS 6 Xposition Yposition Zposition Xrotation Yrotation Zrotation
					JOINT mixamorig:LeftToe_End
					{
						OFFSET -0.000003 -0.000679 9.278133
						CHANNELS 6 Xposition Yposition Zposition Xrotation Yrotation Zrotation
						End Site
						{
							OFFSET 0.000000 -0.068021 927.813477
						}
					}
				}
			}
		}
	}
}
MOTION
Frames: 3
Frame Time: 0.033333
0.000006 104.270477 1.554256 0.000010 0.000003 -0.000113 -0.000005 10.181587 0.131522 0.000001 -0.000003 0.000084 -0.000000 9.893967 -1.470711 0.000001 0.000000 -0.000000 -0.000000 9.220802 -1.370642 0.000000 -0.000000 -0.000000 0.000001 16.740433 -2.049030 0.000000 -0.000000 -0.000000 0.000000 9.617859 1.685014 0.000000 0.000000 0.000000 0.000002 22.037384 7.501101 0.000000 -0.000000 0.000000 -4.569968 11.014880 -2.160881 0.000008 0.000001 -0.000038 -10.592876 -0.524694 -2.231995 73.611496 11.326491 -8.487237 -27.841541 0.000035 0.000518 120.234333 58.347888 -88.347151 -28.328825 0.000019 0.000020 -0.000321 -0.000043 0.000009 -2.464521 -1.573654 2.682284 -54.158499 174.612133 -36.665053 -3.215267 -1.872655 1.924687 157.047755 28.370055 -15.675137 -2.654945 -1.527911 1.513085 144.646154 26.612867 -47.120188 -2.018830 -1.152017 1.108070 0.000001 -0.000003 -0.000003 -9.108380 -0.517547 2.260093 93.901919 15.214173 -16.322665 -3.700084 0.000313 0.001470 88.722450 14.438948 -14.100453 -2.850086 0.000354 -0.000298 86.260358 11.733923 -10.995833 -2.772161 0.000001 -0.000017 0.000003 -0.000001 -0.000001 -9.532576 0.000280 0.000191 86.416872 12.071812 -11.472962 -3.700067 0.000332 0.003944 87.105122 11.172905 -10.536279 -2.950055 0.000331 -0.001867 87.730768 10.897689 -10.470037 -2.946629 0.000014 -0.000166 -0.000002 0.000002 -0.000001 -9.103692 -0.042758 -1.864915 84.475213 13.089668 -11.854661 -3.379317 0.000321 -0.000849 87.159853 8.213991 -7.834079 -2.889756 0.000359 0.000617 90.054268 6.205406 -6.256389 -2.638800 -0.000029 0.000940 0.000003 -0.000003 -0.000000 -8.076735 -0.486373 -3.806069 78.246572 12.919295 -10.404542 -3.600009 0.000284 -0.003566 81.499149 5.540735 -4.480584 -2.099998 0.000321 -0.005537 82.304544 2.749426 -2.219289 -2.115777 -0.000040 -0.003690 -0.000001 -0.000002 -0.000003 4.570446 11.014691 -2.160851 -0.000018 0.000010 -0.000021 10.592371 -0.524505 -2.232308 72.091588 -0.127685 0.093008 27.841841 0.000119 -0.000196 105.801768 -62.841244 77.861069 28.328825 -0.000030 0.000022 0.000022 -0.000088 -0.000000 2.465887 -1.576074 2.681911 -51.553407 175.260947 22.191112 3.217821 -1.871768 1.916365 155.214765 -29.144311 11.296942 2.656092 -1.528628 1.514458 139.176921 -28.035538 46.039423 2.020899 -1.154083 1.115143 0.000005 0.000004 0.000002 9.109372 -0.517863 2.259746 78.645721 -15.811072 12.968572 3.700051 0.000131 -0.000464 75.225552 -17.514748 13.551013 2.850048 0.000162 0.000201 72.787229 -14.670466 10.839495 2.774880 -0.000029 -0.000022 -0.000001 -0.000002 -0.000000 9.533454 0.000208 -0.000091 78.369099 -14.288615 11.660194 3.700068 0.000162 -0.000373 81.235777 -15.372360 13.202540 2.950066 0.000127 -0.000188 80.611532 -18.812402 16.000188 2.952856 -0.000027 0.000068 -0.000001 0.000002 0.000001 9.104586 -0.042844 -1.865223 79.638353 -13.257274 11.069685 3.150047 0.000179 -0.000092 83.769552 -13.531229 12.147082 2.950014 0.000144 -0.000069 82.665301 -15.715353 13.843383 2.644320 0.000032 0.000056 0.000001 0.000002 0.000002 8.077830 -0.486739 -3.806383 70.692192 -14.796089 10.939981 3.600004 0.000174 0.014585 72.938805 -13.255487 10.198757 2.100037 0.000144 0.007533 74.802196 -12.943619 10.290530 2.125525 -0.000003 0.007520 -0.000001 0.000001 -0.000003 -8.207786 -6.751667 -1.599560 -0.077001 -0.000003 0.000080 -0.000002 -44.370110 0.345938 0.153719 -0.000000 -0.000000 0.000000 -44.423679 -3.043532 -0.076700 0.000000 -0.000002 -0.000006 -8.728667 10.710559 -0.000009 -0.000000 -0.000000 -0.000001 -0.000679 9.278123 0.000000 -0.000000 -0.000000 8.207792 -6.751710 -1.599556 -0.074518 -0.000003 0.000081 -0.000002 -44.370014 0.346960 0.148822 0.000002 0.000000 -0.000001 -44.423664 -3.044403 -0.074314 0.000000 -0.000002 -0.000004 -8.728671 10.710558 0.000007 -0.000000 -0.000000 0.000000 -0.000680 9.278137 -0.000000 0.000000 -0.000001 
0.000006 104.270477 1.554256 0.000010 0.000003 -0.000113 -0.000005 10.181587 0.131522 0.000001 -0.000003 0.000084 -0.000000 9.893967 -1.470711 0.000001 0.000000 -0.000000 -0.000000 9.220802 -1.370642 0.000000 -0.000000 -0.000000 0.000001 16.740433 -2.049030 0.000000 -0.000000 -0.000000 0.000000 9.617859 1.685014 0.000000 0.000000 0.000000 0.000002 22.037384 7.501101 0.000000 -0.000000 0.000000 -4.569968 11.014880 -2.160881 0.000008 0.000001 -0.000038 -10.592870 -0.524676 -2.232017 73.126717 8.438594 -6.263786 -27.841551 0.000005 0.000529 120.540230 58.824437 -89.259952 -28.328829 0.000022 0.000026 -0.000320 -0.000043 0.000007 -2.464490 -1.573653 2.682290 -53.988571 177.342966 -33.733532 -3.215274 -1.872663 1.924697 153.211197 27.048044 -24.778642 -2.654965 -1.527893 1.513078 139.394927 28.211574 -43.394255 -2.018831 -1.151984 1.108063 -0.000007 -0.000004 0.000004 -9.108376 -0.517551 2.260087 90.191849 15.586814 -15.684957 -3.700087 0.000313 0.001478 88.164143 13.639667 -13.190447 -2.850078 0.000376 -0.000308 86.990867 10.867493 -10.313423 -2.772172 0.000000 -0.000010 0.000001 -0.000003 0.000001 -9.532583 0.000270 0.000203 85.360549 13.681678 -12.753863 -3.700065 0.000306 0.003918 85.646583 11.630440 -10.696466 -2.950057 0.000333 -0.001850 87.246719 11.053666 -10.531127 -2.946640 -0.000000 -0.000163 0.000000 -0.000001 -0.000000 -9.103683 -0.042754 -1.864916 83.608407 15.523398 -13.859034 -3.379348 0.000300 -0.000868 86.101242 9.751807 -9.128859 -2.889769 0.000357 0.000623 90.649950 7.069892 -7.196473 -2.638817 -0.000002 0.000943 -0.000001 0.000001 0.000000 -8.076728 -0.486384 -3.806063 78.289677 15.794920 -12.761764 -3.600046 0.000274 -0.003564 80.163847 8.331906 -6.715795 -2.100024 0.000319 -0.005533 83.802740 5.117140 -4.396609 -2.115779 -0.000039 -0.003672 0.000001 -0.000005 -0.000002 4.570446 11.014691 -2.160851 -0.000018 0.000010 -0.000021 10.592354 -0.524536 -2.232255 72.371721 13.613901 -9.980459 27.841846 0.000118 -0.000221 106.093875 -62.588473 77.880009 28.328840 -0.000013 0.000015 0.000020 -0.000090 -0.000000 2.466101 -1.576180 2.681911 -26.941767 161.221752 -38.174545 3.217872 -1.871849 1.916394 159.960080 -24.185848 34.739797 2.656112 -1.528682 1.514478 138.672347 -27.873669 55.505481 2.020903 -1.154098 1.115148 -0.000000 0.000003 0.000001 9.109385 -0.517880 2.259731 81.412337 -18.533105 15.969553 3.700042 0.000144 -0.000465 77.812104 -14.290249 11.568097 2.850056 0.000175 0.000191 76.351591 -12.085355 9.514403 2.774885 -0.000017 -0.000026 -0.000003 0.000003 0.000001 9.533465 0.000188 -0.000088 80.894841 -17.770274 15.174479 3.700027 0.000166 -0.000376 82.725667 -13.163065 11.598696 2.950042 0.000162 -0.000196 83.111647 -12.199553 10.825807 2.952868 -0.000018 0.000057 0.000002 0.000003 -0.000001 9.104588 -0.042866 -1.865221 81.262749 -17.646275 15.174703 3.150048 0.000165 -0.000104 83.699085 -13.331670 11.952946 2.950008 0.000179 -0.000069 84.326984 -10.776444 9.765728 2.644327 0.000015 0.000069 0.000000 0.000003 -0.000001 8.077845 -0.486747 -3.806399 74.188313 -19.784999 15.490039 3.599997 0.000147 0.014574 73.551527 -16.726462 12.942153 2.100039 0.000172 0.007538 75.781120 -11.739075 9.525300 2.125501 -0.000029 0.007520 0.000001 0.000000 -0.000002 -8.207786 -6.751667 -1.599560 -0.077001 -0.000003 0.000080 -0.000002 -44.370110 0.345938 0.153719 -0.000000 -0.000000 0.000000 -44.423679 -3.043532 -0.076700 0.000000 -0.000002 -0.000006 -8.728667 10.710559 -0.000009 -0.000000 -0.000000 -0.000001 -0.000679 9.278123 0.000000 -0.000000 -0.000000 8.207792 -6.751710 -1.599556 -0.074518 -0.000003 0.000081 -0.000002 -44.370014 0.346960 0.148822 0.000002 0.000000 -0.000001 -44.423664 -3.044403 -0.074314 0.000000 -0.000002 -0.000004 -8.728671 10.710558 0.000007 -0.000000 -0.000000 0.000000 -0.000680 9.278137 -0.000000 0.000000 -0.000001 
0.000006 104.270477 1.554256 0.000010 0.000003 -0.000113 -0.000005 10.181587 0.131522 0.000001 -0.000003 0.000084 -0.000000 9.893967 -1.470711 0.000001 0.000000 -0.000000 -0.000000 9.220802 -1.370642 0.000000 -0.000000 -0.000000 0.000001 16.740433 -2.049030 0.000000 -0.000000 -0.000000 0.000000 9.617859 1.685014 0.000000 0.000000 0.000000 0.000002 22.037384 7.501101 0.000000 -0.000000 0.000000 -4.569968 11.014880 -2.160881 0.000008 0.000001 -0.000038 -10.592883 -0.524707 -2.231976 72.258135 15.490174 -11.339904 -27.841534 0.000019 0.000528 122.967843 63.880717 -97.855109 -28.328804 0.000021 0.000022 -0.000323 -0.000046 0.000007 -2.464418 -1.573806 2.682353 -44.525559 194.885009 -0.863162 -3.215284 -1.872669 1.924721 153.948994 26.595693 -27.097358 -2.654958 -1.527879 1.513066 139.022627 28.302508 -43.416217 -2.018838 -1.152020 1.108054 -0.000002 -0.000005 0.000000 -9.108365 -0.517546 2.260089 92.703603 15.376429 -16.158561 -3.700065 0.000316 0.001488 89.379480 12.871574 -12.710908 -2.850079 0.000363 -0.000314 87.052380 9.523515 -9.046916 -2.772176 -0.000017 -0.000024 0.000001 0.000002 -0.000001 -9.532560 0.000282 0.000197 86.912135 11.889200 -11.398556 -3.700050 0.000336 0.003931 87.410801 10.233198 -9.694554 -2.950052 0.000344 -0.001852 87.489143 9.945751 -9.514512 -2.946617 -0.000015 -0.000158 -0.000003 -0.000001 0.000000 -9.103682 -0.042741 -1.864907 85.923363 13.009845 -12.082530 -3.379309 0.000327 -0.000834 88.368680 9.917126 -9.656964 -2.889759 0.000345 0.000627 90.855859 7.684101 -7.846078 -2.638805 -0.000014 0.000946 0.000000 0.000001 0.000001 -8.076727 -0.486378 -3.806064 80.305171 13.743987 -11.487300 -3.600048 0.000272 -0.003544 82.363844 8.289139 -6.944181 -2.100013 0.000319 -0.005519 85.617500 5.399837 -4.799741 -2.115759 -0.000054 -0.003678 0.000002 -0.000001 -0.000004 4.570446 11.014691 -2.160851 -0.000018 0.000010 -0.000021 10.592357 -0.524536 -2.232270 71.449639 12.643906 -9.111649 27.841846 0.000100 -0.000197 106.348757 -65.400250 81.217656 28.328823 -0.000044 0.000016 0.000020 -0.000088 -0.000000 2.466203 -1.576117 2.681863 -3.904187 161.932051 -79.085401 3.217871 -1.871872 1.916428 159.375252 -21.181851 48.378428 2.656095 -1.528672 1.514465 138.827925 -27.816485 55.582304 2.020899 -1.154070 1.115134 -0.000004 0.000001 0.000002 9.109370 -0.517857 2.259754 84.374556 -18.457413 16.742926 3.700037 0.000140 -0.000467 81.068895 -14.516724 12.446183 2.850034 0.000166 0.000193 78.678090 -12.146114 9.966475 2.774883 -0.000016 -0.000028 -0.000001 0.000001 -0.000001 9.533465 0.000198 -0.000083 83.195310 -17.654446 15.691250 3.700055 0.000163 -0.000385 84.979206 -12.570589 11.519585 2.950054 0.000174 -0.000216 84.397950 -11.146875 10.115298 2.952865 -0.000019 0.000063 0.000001 0.000000 0.000000 9.104576 -0.042869 -1.865222 83.333779 -17.331842 15.450339 3.150052 0.000184 -0.000084 85.974002 -14.174833 13.222795 2.950018 0.000167 -0.000080 85.709961 -11.085018 10.290689 2.644323 0.000015 0.000056 0.000001 -0.000000 -0.000002 8.077847 -0.486734 -3.806401 77.281965 -19.809572 16.384181 3.600012 0.000166 0.014577 75.233475 -17.845541 14.213581 2.100049 0.000165 0.007547 75.390692 -12.323366 9.915174 2.125516 -0.000015 0.007517 0.000001 0.000005 -0.000002 -8.207786 -6.751667 -1.599560 -0.077001 -0.000003 0.000080 -0.000002 -44.370110 0.345938 0.153719 -0.000000 -0.000000 0.000000 -44.423679 -3.043532 -0.076700 0.000000 -0.000002 -0.000006 -8.728667 10.710559 -0.000009 -0.000000 -0.000000 -0.000001 -0.000679 9.278123 0.000000 -0.000000 -0.000000 8.207792 -6.751710 -1.599556 -0.074518 -0.000003 0.000081 -0.000002 -44.370014 0.346960 0.148822 0.000002 0.000000 -0.000001 -44.423664 -3.044403 -0.074314 0.000000 -0.000002 -0.000004 -8.728671 10.710558 0.000007 -0.000000 -0.000000 0.000000 -0.000680 9.278137 -0.000000 0.000000 -0.000001 
